PathFileType	4	(X/Y/Z)	./resultDataOpenSim/trcMotMarkerGrf/sub06/qtm-12-02.trc
DataRate	CameraRate	NumFrames	NumMarkers	Units	OrigDataRate	OrigDataStartFrame	OrigNumFrames
250.000000	250.000000	14	24	m	250.000000	302	482
Frame#	Time	L.Toe.Tip			R.Toe.Tip			L.Ankle.Lat			R.Ankle.Lat			L.Ankle.Med			R.Ankle.Med			L.Heel			R.Heel			L.Knee.Lat			R.Knee.Lat			L.Knee.Med			R.Knee.Med			L.Thigh.Upper			R.Thigh.Upper			L.ASIS			R.ASIS			V.Sacral			L.Acromium			R.Acromium			C7			L.Elbow			R.Elbow			L.Wrist.Lat			R.Wrist.Lat
		X1	Y1	Z1	X2	Y2	Z2	X3	Y3	Z3	X4	Y4	Z4	X5	Y5	Z5	X6	Y6	Z6	X7	Y7	Z7	X8	Y8	Z8	X9	Y9	Z9	X10	Y10	Z10	X11	Y11	Z11	X12	Y12	Z12	X13	Y13	Z13	X14	Y14	Z14	X15	Y15	Z15	X16	Y16	Z16	X17	Y17	Z17	X18	Y18	Z18	X19	Y19	Z19	X20	Y20	Z20	X21	Y21	Z21	X22	Y22	Z22	X23	Y23	Z23	X24	Y24	Z24

302	1.204	0.50156033	0.077561166	-0.10724205	1.027346	0.035582554	0.059503116	0.48857815	0.2071417	-0.13027789	0.89074987	0.061859429	0.086328492	0.51204387	0.21096283	-0.048252427	0.90984781	0.079552997	-0.0015828053	0.43904913	0.25836582	-0.07545544	0.83415829	0.040070749	0.030028742	0.82061407	0.37897008	-0.16932098	0.9808696	0.43812145	0.11570944	0.83245304	0.36840817	-0.045892066	0.93680845	0.42818599	-0.0043399881	0.77150131	0.76889511	-0.1510217	0.85798516	0.79284696	0.18373214	0.85462775	0.82457767	-0.12966509	0.92312746	0.84449464	0.10627178	0.70838328	0.90551363	0.040006928	0.82149323	1.3224911	-0.17025604	0.84912249	1.29482	0.19140119	0.75172416	1.3516293	0.019743225	0.83855341	0.99256844	-0.22713739	0.74519065	0.99573017	0.25877661	1.066255	0.89573867	-0.19272473	0.85799056	0.79164701	0.32614297
303	1.208	0.51789062	0.078592393	-0.10909527	1.0273487	0.035577489	0.059537676	0.5029997	0.20774533	-0.13129994	0.8906506	0.061964664	0.086431679	0.5261805	0.21157563	-0.049133378	0.90988047	0.079696325	-0.0015325527	0.45232747	0.2581495	-0.076184238	0.8341806	0.040242048	0.030045841	0.83319324	0.38170214	-0.17009969	0.98219701	0.43814042	0.11591323	0.84558989	0.37092797	-0.046617386	0.93881905	0.42882533	-0.0044851681	0.77814107	0.77094018	-0.15093998	0.86239307	0.79382967	0.18354292	0.86100734	0.82671193	-0.12981716	0.92891737	0.84600051	0.1068685	0.71484716	0.90742989	0.0397957	0.82702924	1.324614	-0.17040008	0.85538479	1.2968878	0.19128265	0.75746551	1.3540079	0.020268872	0.84259906	0.99482002	-0.22716479	0.75438044	0.99655399	0.25926867	1.0683665	0.89383315	-0.19411453	0.87205275	0.79432426	0.32443158
304	1.212	0.53437472	0.079410412	-0.11092176	1.027359	0.035572454	0.059570207	0.51748363	0.20813516	-0.13233646	0.890576	0.062093072	0.086546379	0.54052829	0.2118913	-0.050004782	0.90991173	0.079861274	-0.0014696865	0.46571912	0.25766378	-0.076901524	0.83418791	0.04041806	0.03011519	0.84572922	0.38454934	-0.1708287	0.98344069	0.43817718	0.11608767	0.8586284	0.37357381	-0.047250892	0.94059528	0.42948335	-0.004591787	0.78490997	0.77315764	-0.15098241	0.86663946	0.79478207	0.18318675	0.86737672	0.82889471	-0.12993882	0.93469154	0.84760602	0.10750933	0.7212333	0.90934556	0.039469789	0.83259316	1.3267465	-0.17052786	0.86162722	1.2989858	0.19114719	0.7633393	1.3561897	0.020486602	0.84650831	0.99707044	-0.22726054	0.76362472	0.99747094	0.25977998	1.0703323	0.89201555	-0.19556013	0.88610622	0.79724005	0.32264879
305	1.216	0.55102386	0.080037167	-0.11273773	1.0273699	0.035569922	0.059599451	0.53198253	0.20832695	-0.13335579	0.89058054	0.0622269	0.0866407	0.55505211	0.21194584	-0.050873722	0.90994081	0.080047843	-0.0013958805	0.47919515	0.25690202	-0.077618686	0.83416932	0.040604846	0.030237035	0.85821471	0.3875023	-0.17149791	0.98461433	0.43824984	0.11625961	0.87160732	0.37635748	-0.047816618	0.94209339	0.43015387	-0.0046276615	0.79181035	0.77560225	-0.15117198	0.87099994	0.79583102	0.1829114	0.87369463	0.83116886	-0.13005305	0.94045781	0.84931028	0.10817977	0.72744934	0.91133941	0.039312018	0.83818386	1.3288795	-0.17063328	0.86785573	1.3011102	0.19099491	0.76926784	1.3582722	0.020560425	0.85024824	0.99929609	-0.22735143	0.77295177	0.99848225	0.26032167	1.0721618	0.89027935	-0.19705418	0.90015335	0.80039384	0.32080107
306	1.22	0.56787127	0.080499034	-0.11454954	1.0273754	0.035570785	0.059623306	0.54645064	0.20831402	-0.13432413	0.89063921	0.062348474	0.086707326	0.56966328	0.21180589	-0.051758889	0.90996379	0.080254648	-0.0013139066	0.4927437	0.25583669	-0.078383735	0.83414118	0.040813744	0.030364729	0.87064746	0.39055636	-0.17209803	0.98562447	0.43837292	0.11645832	0.88452045	0.37927906	-0.048320364	0.94326518	0.43083194	-0.0045732983	0.79879228	0.77811984	-0.15141676	0.87571625	0.79708432	0.18290117	0.8799966	0.8335073	-0.13013984	0.94621453	0.85109736	0.10885907	0.73328196	0.91358688	0.039963438	0.84379422	1.3310082	-0.17071755	0.87407565	1.3032561	0.19082772	0.77521056	1.3603079	0.020588361	0.85385528	1.001514	-0.22742908	0.78227375	0.9995686	0.26085841	1.0738633	0.88862422	-0.19859049	0.91416816	0.80376582	0.31887782
307	1.224	0.58494049	0.080822998	-0.11635479	1.0273719	0.035573069	0.059640589	0.56087887	0.20809701	-0.13523005	0.89067779	0.062453413	0.086762893	0.5843008	0.21152182	-0.052669873	0.9099756	0.080480089	-0.0012242997	0.50635088	0.25444802	-0.079208996	0.83413386	0.041050251	0.030435352	0.88303017	0.39369659	-0.17261346	0.98633215	0.43854199	0.11668402	0.8973473	0.38232966	-0.048760011	0.94419768	0.43149391	-0.0044635887	0.80580449	0.78054502	-0.15160295	0.88083598	0.79853759	0.18311533	0.88638766	0.83581792	-0.13014677	0.9519671	0.85295101	0.1095288	0.7385353	0.91621703	0.041975244	0.84941279	1.3331272	-0.17078184	0.88029612	1.3054178	0.19065227	0.78116063	1.3623111	0.020615181	0.85737761	1.0037505	-0.22750432	0.79142333	1.0006969	0.2613239	1.0754434	0.88705491	-0.20016725	0.92812317	0.80733483	0.31687105
308	1.228	0.60224169	0.081040298	-0.11814588	1.0273592	0.035574725	0.059652285	0.57531572	0.20767915	-0.13609047	0.8906654	0.062552963	0.0868241	0.59896876	0.21110388	-0.053600624	0.90997529	0.080720089	-0.0011256582	0.51999553	0.25274199	-0.080048338	0.83414815	0.041306791	0.030449725	0.89536133	0.39689769	-0.17303395	0.98674808	0.43873017	0.11690532	0.91007021	0.38550124	-0.049133727	0.94505188	0.43210647	-0.0043565495	0.81289483	0.78284692	-0.15174631	0.88629212	0.80010849	0.18339557	0.89293309	0.83803577	-0.13005948	0.95772884	0.85485749	0.11017613	0.74336327	0.91903307	0.044922662	0.85503411	1.3352243	-0.17082881	0.88652209	1.3075898	0.19047334	0.78712495	1.3642876	0.020671905	0.86084523	1.0060186	-0.22756808	0.80031986	1.0018496	0.26168825	1.0769111	0.88557333	-0.20178421	0.9419994	0.81108391	0.31478117
309	1.232	0.61977817	0.081176631	-0.11991429	1.0273402	0.035575805	0.059661328	0.5898417	0.20705736	-0.13693531	0.89062949	0.062666858	0.086899185	0.61370337	0.21054034	-0.054539515	0.90996768	0.080968532	-0.0010166282	0.53366648	0.25073613	-0.080847571	0.83414688	0.0415708	0.030481211	0.90763454	0.40013697	-0.17337104	0.98708126	0.43891195	0.11708767	0.92268361	0.38878901	-0.049445051	0.94589554	0.43264452	-0.0042751113	0.82024266	0.78506189	-0.15203055	0.89197193	0.80170731	0.18364249	0.89961004	0.84016941	-0.12992603	0.963502	0.8567999	0.11079469	0.74825755	0.92157713	0.047454097	0.86066348	1.3372913	-0.17086529	0.8927517	1.3097659	0.19028982	0.79310421	1.3662454	0.020773555	0.86426889	1.0083168	-0.22759941	0.80904106	1.0030379	0.26198732	1.0782801	0.88417836	-0.20344112	0.95578713	0.8150013	0.31261511
310	1.236	0.63754037	0.08123551	-0.12164368	1.0273183	0.035577223	0.059671	0.60450916	0.20623156	-0.1377811	0.8906021	0.062808933	0.086990563	0.62852986	0.2098188	-0.055470587	0.90995965	0.081222076	-0.0008965721	0.54737565	0.24844036	-0.081591969	0.83410558	0.041836123	0.03058418	0.91984461	0.40339908	-0.17364444	0.98752929	0.43909442	0.11722061	0.93519347	0.39218611	-0.04970445	0.94665801	0.43310333	-0.0042051495	0.82802247	0.7872282	-0.15267066	0.89761586	0.80324141	0.18381845	0.90636765	0.84226403	-0.12980866	0.96926888	0.85875539	0.11138164	0.75356585	0.92359911	0.048626242	0.86630834	1.3393345	-0.17089561	0.89898671	1.3119408	0.1901014	0.79908785	1.3681797	0.020895213	0.86764709	1.0106378	-0.22759037	0.81773622	1.0042873	0.26228725	1.0795621	0.88287063	-0.20513538	0.96948493	0.81908096	0.31038164
311	1.24	0.65550608	0.081201772	-0.12330838	1.0272981	0.035578998	0.059683185	0.61932869	0.20520977	-0.13862791	0.8905865	0.062980492	0.087095217	0.64344091	0.20893591	-0.056367201	0.90995675	0.081482651	-0.00076539283	0.5611468	0.24585745	-0.082305833	0.83404962	0.042103282	0.030730365	0.9319888	0.40667426	-0.17386858	0.98812733	0.43930792	0.11731715	0.94758862	0.39568197	-0.049919784	0.94720164	0.43349957	-0.0041257282	0.83616754	0.78939541	-0.15368718	0.90294101	0.8046558	0.18391053	0.91317229	0.84437047	-0.12973676	0.97501185	0.86070242	0.11193539	0.75925807	0.92524282	0.048630259	0.87197056	1.3413606	-0.17091951	0.90523131	1.3141091	0.18990889	0.80506389	1.3700685	0.020992203	0.87098083	1.0129757	-0.22755327	0.82652319	1.0056177	0.26264316	1.080763	0.88165066	-0.20685913	0.98309264	0.82331964	0.30808681
312	1.244	0.67366362	0.081075346	-0.12489489	1.0272853	0.035580364	0.059698241	0.63430444	0.20400045	-0.13947792	0.89057147	0.063175916	0.08720536	0.65840778	0.20789539	-0.057207496	0.90996336	0.081755372	-0.00062368725	0.57499947	0.24298795	-0.08302568	0.83402449	0.042375317	0.030854811	0.94406402	0.40995594	-0.17405272	0.98880506	0.43956672	0.1173986	0.95981689	0.39925999	-0.050084799	0.94746751	0.43384935	-0.0040332211	0.84434474	0.79162259	-0.15486792	0.90796286	0.8059858	0.18393554	0.9200046	0.84653212	-0.12969345	0.98072894	0.86262658	0.11245677	0.76516552	0.9267668	0.04814755	0.87764721	1.3433626	-0.1709385	0.91148334	1.3162631	0.18971087	0.811027	1.3718914	0.021042294	0.87427779	1.0153205	-0.22751006	0.83544014	1.0070283	0.26307646	1.0818875	0.88051123	-0.20860309	0.99659684	0.82770948	0.30573288
313	1.248	0.69202869	0.080901167	-0.12641786	1.0272851	0.035580685	0.059716006	0.64944046	0.20260706	-0.14033637	0.89055773	0.063390312	0.087314257	0.6734079	0.20669503	-0.057995634	0.90998458	0.082046417	-0.00047357538	0.58894551	0.23982977	-0.083775341	0.83405307	0.042659767	0.030925473	0.95606438	0.41323579	-0.17419687	0.9894823	0.43985427	0.11748182	0.97182907	0.40289626	-0.050192668	0.94751606	0.43415878	-0.0039526331	0.85223214	0.79394008	-0.15596252	0.91296595	0.8072946	0.18390032	0.92685735	0.84875399	-0.12962257	0.98642504	0.86451562	0.11294916	0.77117171	0.92830443	0.047636216	0.88333268	1.345325	-0.17095702	0.91773888	1.3183944	0.18950768	0.8169778	1.3736454	0.021053897	0.87754143	1.0176555	-0.2274788	0.84444434	1.0084887	0.26356541	1.0829433	0.8794362	-0.21036664	1.0099689	0.83223244	0.30332135
314	1.252	0.71063975	0.080750812	-0.12790987	1.0272982	0.035579873	0.059736226	0.66472264	0.20102879	-0.14119824	0.89056336	0.063623976	0.08742173	0.68843107	0.20532161	-0.058747423	0.9100265	0.082362332	-0.000319625	0.60299194	0.23638257	-0.08455894	0.83413134	0.042972498	0.030952004	0.96798259	0.41650129	-0.17428953	0.99010942	0.44014153	0.11756852	0.98363112	0.40656864	-0.050258276	0.94737467	0.43444999	-0.0039330327	0.85970247	0.79631634	-0.1567282	0.91817905	0.8085916	0.18376045	0.93373767	0.85098731	-0.12944371	0.99209955	0.86635398	0.11341656	0.77718405	0.9298614	0.04722283	0.8890207	1.3472359	-0.17097864	0.92399738	1.3204945	0.18930227	0.82291758	1.3753391	0.021048044	0.88076754	1.0199668	-0.22746707	0.85345586	1.009953	0.26406303	1.0839367	0.87841027	-0.21216147	1.0231884	0.83686098	0.30085607
315	1.256	0.7295394	0.080665799	-0.12940164	1.0273215	0.035578178	0.059758751	0.68012534	0.19926246	-0.14204979	0.89060918	0.063882544	0.087530721	0.70347493	0.20376161	-0.059468427	0.91009365	0.082708065	-0.00016793285	0.61714629	0.23265439	-0.085368439	0.83423344	0.043329254	0.030966722	0.97981453	0.41974505	-0.17432383	0.99067045	0.44040821	0.11764547	0.99523562	0.41025998	-0.050300952	0.94704515	0.43476395	-0.0040118808	0.86675842	0.79868119	-0.15686077	0.92360291	0.80983454	0.18346033	0.94067283	0.85317398	-0.12908119	0.99774559	0.8681254	0.11386139	0.78308286	0.93139645	0.046854244	0.89470699	1.3490907	-0.17100512	0.93025674	1.3225565	0.1890952	0.82884189	1.3769848	0.021044954	0.88395407	1.022249	-0.22747783	0.86241631	1.0113866	0.26453397	1.0848713	0.8774289	-0.21400234	1.036267	0.84156524	0.29834137
